<svg width="722" height="535" viewBox="0 0 722 535" fill="none" xmlns="http://www.w3.org/2000/svg">
<path d="M428.8 0.899414L420.8 28.3994H473.2V311.299H500.7V0.899414H428.8Z" fill="#B7202C"/>
<path d="M373.9 0.899414H345.2L279.9 228.899L187.1 10.3994L94.4002 228.899L28.9002 0.899414H0.200195L89.3002 311.299L187.1 80.9994L284.9 311.299L373.9 0.899414Z" fill="#B7202C"/>
<path d="M614.8 98.0998C603 98.0998 591.6 100.1 581 103.6V28.2998H697.1V0.799805H553.5V154.5C568 136.8 590.1 125.4 614.8 125.4C658.5 125.4 694 160.9 694 204.6C694 248.3 658.5 283.8 614.8 283.8C590.1 283.8 568 272.5 553.5 254.7V291.7C570.8 303.9 592 311.2 614.8 311.2C673.7 311.2 721.4 263.5 721.4 204.6C721.4 145.7 673.7 98.0998 614.8 98.0998Z" fill="#B7202C"/>
<path d="M455.8 528.9H265.8V534.1H455.8V528.9Z" fill="#B7202C"/>
<path d="M59 391.7V361.5H62V374.2H77.4V361.5H80.4V391.7H77.4V377.1H62V391.7H59Z" fill="#414142"/>
<path d="M115.4 361.5H116.1L130.1 391.7H126.9L122.3 381.8H109.1L104.5 391.7H101.3L115.4 361.5ZM110.4 378.9H121L115.7 367.6L110.4 378.9Z" fill="#414142"/>
<path d="M150.9 391.7V361.5H151.5L171.5 384.6V361.5H174.5V391.7H173.8L153.8 368.9V391.7H150.9Z" fill="#414142"/>
<path d="M195.9 361.5H212.5V364.4H205.8V391.7H202.8V364.5H196V361.5H195.9Z" fill="#414142"/>
<path d="M233.8 391.7V361.5H236.8V374.2H252.2V361.5H255.2V391.7H252.2V377.1H236.8V391.7H233.8Z" fill="#414142"/>
<path d="M290.1 361.5H290.8L304.8 391.7H301.6L297 381.8H283.8L279.2 391.7H276L290.1 361.5ZM285.2 378.9H295.8L290.5 367.6L285.2 378.9Z" fill="#414142"/>
<path d="M325.7 391.7V361.5H326.3L346.3 384.6V361.5H349.3V391.7H348.6L328.6 368.9V391.7H325.7Z" fill="#414142"/>
<path d="M384.3 361.5H385L399 391.7H395.8L391.2 381.8H378L373.4 391.7H370.2L384.3 361.5ZM379.3 378.9H389.9L384.6 367.6L379.3 378.9Z" fill="#414142"/>
<path d="M448.5 391.7V361.5H465.8V364.4H451.6V373.9H465.8V376.8H451.6V388.7H465.8V391.6H448.5V391.7Z" fill="#414142"/>
<path d="M485.8 386.1L488.4 384.5C490.2 387.8 492.3 389.5 494.7 389.5C495.5 389.5 496.2 389.4 496.9 389.1C497.6 388.8 498.2 388.5 498.7 388C499.2 387.5 499.6 387 499.9 386.4C500.2 385.8 500.3 385.1 500.3 384.4C500.3 383.7 500.1 383 499.8 382.4C499.5 381.8 499 381.1 498.4 380.4C497.8 379.7 496.9 378.9 495.9 378.1C494.9 377.2 493.6 376.2 492.2 375.1C491.4 374.5 490.8 374 490.2 373.4C489.7 372.9 489.2 372.3 488.9 371.8C488.5 371.3 488.3 370.7 488.1 370C487.9 369.3 487.8 368.6 487.8 367.8C487.8 366.8 488 365.8 488.4 364.9C488.8 364 489.3 363.3 490 362.7C490.7 362.1 491.4 361.6 492.3 361.2C493.2 360.9 494.2 360.7 495.2 360.7C496.1 360.7 497 360.8 497.7 361.1C498.5 361.4 499.2 361.7 499.8 362.2C500.4 362.7 501 363.2 501.5 363.8C502 364.4 502.6 365 503.1 365.7L500.7 367.6C499.9 366.5 499.1 365.7 498.2 365C497.4 364.3 496.3 363.9 495.1 363.9C494.5 363.9 493.9 364 493.4 364.2C492.9 364.4 492.5 364.7 492.1 365.1C491.7 365.5 491.5 365.9 491.3 366.3C491.1 366.7 491 367.2 491 367.7C491 368.7 491.3 369.6 491.9 370.5C492.5 371.3 493.3 372.1 494.3 372.8C495.6 373.8 496.9 374.7 498 375.6C499.1 376.5 500.1 377.4 500.9 378.3C501.7 379.2 502.4 380.2 502.8 381.1C503.2 382.1 503.5 383.2 503.5 384.3C503.5 385.4 503.3 386.4 502.9 387.4C502.5 388.4 501.9 389.2 501.1 390C500.3 390.8 499.4 391.3 498.4 391.8C497.4 392.2 496.2 392.5 495 392.5C492.9 392.5 491.1 391.9 489.7 390.8C488.2 389.7 486.9 388.1 485.8 386.1Z" fill="#414142"/>
<path d="M522.9 361.5H539.5V364.4H532.8V391.7H529.8V364.5H523V361.5H522.9Z" fill="#414142"/>
<path d="M569.1 361.5H569.8L583.8 391.7H580.6L576 381.8H562.8L558.2 391.7H555L569.1 361.5ZM564.2 378.9H574.8L569.5 367.6L564.2 378.9Z" fill="#414142"/>
<path d="M601.7 361.5H618.3V364.4H611.6V391.7H608.6V364.5H601.8V361.5H601.7Z" fill="#414142"/>
<path d="M639.6 391.7V361.5H656.8V364.4H642.6V373.9H656.8V376.8H642.6V388.7H656.8V391.6H639.6V391.7Z" fill="#414142"/>
<path d="M168.7 484.8V430.3H174.2V452.9L196.2 430.3H202.9L178.7 455.5L205.3 484.9H198.5L174.1 457.9V484.9H168.7V484.8Z" fill="#B6202D"/>
<path d="M264.1 430.3H265.4L290.7 484.8H285L276.7 466.9H252.8L244.5 484.8H238.8L264.1 430.3ZM255.2 461.8H274.2L264.7 441.4L255.2 461.8Z" fill="#B6202D"/>
<path d="M330.601 484.8V430.3H331.701L367.801 472V430.3H373.301V484.8H372.101L336.101 443.6V484.8H330.601Z" fill="#B6202D"/>
<path d="M419.4 430.3H432.8C437.9 430.3 442.5 430.9 446.5 432C450.5 433.2 454 434.9 456.7 437.2C459.5 439.5 461.6 442.4 463.1 445.9C464.6 449.4 465.3 453.4 465.3 458C465.3 466.5 462.9 473.1 458 477.7C453.1 482.3 445.6 484.6 435.2 484.6H419.3V430.3H419.4ZM424.8 435.7V479.5H435.3C443 479.5 449 477.8 453.3 474.5C457.5 471.1 459.7 465.7 459.7 458.3C459.7 454.3 459.1 450.8 457.8 447.9C456.5 445 454.7 442.7 452.4 440.9C450.1 439.1 447.2 437.8 443.9 436.9C440.6 436.1 436.9 435.6 432.8 435.6H424.8V435.7Z" fill="#B6202D"/>
<path d="M499.101 430.3H505.401L519.401 452.8L533.101 430.3H539.401L522.101 458.8V484.8H516.601V458.8L499.101 430.3Z" fill="#B6202D"/>
</svg>
